# xmcd
#
# Track frame offsets:
#	150
#	12130
#	21980
#	35250
#	46863
#	58738
#	72917
#	83765
#	94410
#	107260
#	121760
#	133103
#	145713
#	157303
#	168974
#	181922
#	191842
#	201416
#	212487
#	223965
#	235158
#	247266
#	257791
#	268256
#
# Disc length: 3720 seconds
#
# Revision: 0
# Processed by: cddbd v1.5.2PL0 Copyright (c) Steve Scherf et al.
# Submitted via: EZCDAudioConverter 4.0.5.1
#
DISCID=650e8618
DTITLE=Kitty Wells - Heartbreak U S A and Queen Of Country Music
DYEAR=1961
DGENRE=Country
TTITLE0=Heartbreak U S A 
TTITLE1=Heart To Heart Talk
TTITLE2=Heartaches By The Number
TTITLE3=My Heart Echoes
TTITLE4=I've Got A New Heartache
TTITLE5=Open Up Your Heart (And Let The Sunshine In)
TTITLE6=This Old Heart
TTITLE7=I'll Hold You In My Heart (Till I Can Hold You In My Arms)
TTITLE8=Excuse Me (I Think I've Got A Heartache)
TTITLE9=Cold  Cold Heart
TTITLE10=The Best Off All My Heartaches
TTITLE11=Leave All The Heartache To Me
TTITLE12=Moody River
TTITLE13=What Am I Living For
TTITLE14=Pick Me Up On Your Way Down
TTITLE15=Slowly
TTITLE16=Wooden Heart
TTITLE17=Heart Over Mind
TTITLE18=Everybody's Somebody's Fool
TTITLE19=Am I That Easy To Forget
TTITLE20=One More Time
TTITLE21=Hello Walls
TTITLE22=Your Old Love Letters
TTITLE23=A Fallen Star
EXTD=
EXTT0=
EXTT1=
EXTT2=
EXTT3=
EXTT4=
EXTT5=
EXTT6=
EXTT7=
EXTT8=
EXTT9=
EXTT10=
EXTT11=
EXTT12=
EXTT13=
EXTT14=
EXTT15=
EXTT16=
EXTT17=
EXTT18=
EXTT19=
EXTT20=
EXTT21=
EXTT22=
EXTT23=
PLAYORDER=
